<mxfile host="app.diagrams.net" modified="2023-11-20T21:20:20.794Z" agent="Mozilla/5.0 (iPhone; CPU iPhone OS 17_1_1 like Mac OS X) AppleWebKit/605.1.15 (KHTML, like Gecko) Version/17.1.1 Mobile/15E148 Safari/604.1" etag="4BAdzqcgM6YKmUQOQoPT" version="22.1.3" type="github">
  <diagram name="Page-1" id="zy5NHHiIJGbDXClFzS2q">
    <mxGraphModel dx="356" dy="540" grid="0" gridSize="10" guides="1" tooltips="1" connect="1" arrows="1" fold="1" page="0" pageScale="1" pageWidth="827" pageHeight="1169" math="0" shadow="0">
      <root>
        <mxCell id="0" />
        <mxCell id="1" parent="0" />
        <mxCell id="97FtUZg_fiYp-88hmHjo-1" value="" style="whiteSpace=wrap;html=1;fontSize=16;" parent="1" vertex="1">
          <mxGeometry x="123" y="119" width="120" height="60" as="geometry" />
        </mxCell>
        <mxCell id="0ahojzj5iUzeddJIIv9K-1" value="" style="whiteSpace=wrap;html=1;fontSize=16;" vertex="1" parent="1">
          <mxGeometry x="97" y="264" width="120" height="60" as="geometry" />
        </mxCell>
      </root>
    </mxGraphModel>
  </diagram>
</mxfile>
